<?xml version="1.0" encoding="us-ascii" standalone="no"?><svg xmlns="http://www.w3.org/2000/svg" xmlns:xlink="http://www.w3.org/1999/xlink" contentStyleType="text/css" height="426px" preserveAspectRatio="none" style="width:658px;height:426px;background:#FFFFFF;" version="1.1" viewBox="0 0 658 426" width="658px" zoomAndPan="magnify"><defs/><g><!--class remote-files--><g id="elem_remote-files"><rect codeLine="2" fill="#F1F1F1" height="113.1875" id="remote-files" rx="2.5" ry="2.5" style="stroke:#181818;stroke-width:0.5;" width="114" x="7" y="165"/><ellipse cx="22" cy="181" fill="#ADD1B2" rx="11" ry="11" style="stroke:#181818;stroke-width:1.0;"/><path d="M24.9688,186.6406 Q24.3906,186.9375 23.75,187.0781 Q23.1094,187.2344 22.4063,187.2344 Q19.9063,187.2344 18.5781,185.5938 Q17.2656,183.9375 17.2656,180.8125 Q17.2656,177.6875 18.5781,176.0313 Q19.9063,174.375 22.4063,174.375 Q23.1094,174.375 23.75,174.5313 Q24.4063,174.6875 24.9688,174.9844 L24.9688,177.7031 Q24.3438,177.125 23.75,176.8594 Q23.1563,176.5781 22.5313,176.5781 Q21.1875,176.5781 20.5,177.6563 Q19.8125,178.7188 19.8125,180.8125 Q19.8125,182.9063 20.5,183.9844 Q21.1875,185.0469 22.5313,185.0469 Q23.1563,185.0469 23.75,184.7813 Q24.3438,184.5 24.9688,183.9219 L24.9688,186.6406 Z " fill="#000000"/><text fill="#000000" font-family="sans-serif" font-size="14" lengthAdjust="spacing" textLength="82" x="36" y="185.8467">remote-files</text><line style="stroke:#181818;stroke-width:0.5;" x1="8" x2="120" y1="197" y2="197"/><text fill="#000000" font-family="sans-serif" font-size="14" lengthAdjust="spacing" textLength="58" x="13" y="213.9951">filename</text><text fill="#000000" font-family="sans-serif" font-size="14" lengthAdjust="spacing" textLength="44" x="13" y="230.292">format</text><text fill="#000000" font-family="sans-serif" font-size="14" lengthAdjust="spacing" textLength="28" x="13" y="246.5889">size</text><text fill="#000000" font-family="sans-serif" font-size="14" lengthAdjust="spacing" textLength="17" x="13" y="262.8857">url</text><line style="stroke:#181818;stroke-width:0.5;" x1="8" x2="120" y1="270.1875" y2="270.1875"/></g><!--class identifiers--><g id="elem_identifiers"><rect codeLine="7" fill="#F1F1F1" height="64.2969" id="identifiers" rx="2.5" ry="2.5" style="stroke:#181818;stroke-width:0.5;" width="99" x="274.5" y="355"/><ellipse cx="289.5" cy="371" fill="#ADD1B2" rx="11" ry="11" style="stroke:#181818;stroke-width:1.0;"/><path d="M292.4688,376.6406 Q291.8906,376.9375 291.25,377.0781 Q290.6094,377.2344 289.9063,377.2344 Q287.4063,377.2344 286.0781,375.5938 Q284.7656,373.9375 284.7656,370.8125 Q284.7656,367.6875 286.0781,366.0313 Q287.4063,364.375 289.9063,364.375 Q290.6094,364.375 291.25,364.5313 Q291.9063,364.6875 292.4688,364.9844 L292.4688,367.7031 Q291.8438,367.125 291.25,366.8594 Q290.6563,366.5781 290.0313,366.5781 Q288.6875,366.5781 288,367.6563 Q287.3125,368.7188 287.3125,370.8125 Q287.3125,372.9063 288,373.9844 Q288.6875,375.0469 290.0313,375.0469 Q290.6563,375.0469 291.25,374.7813 Q291.8438,374.5 292.4688,373.9219 L292.4688,376.6406 Z " fill="#000000"/><text fill="#000000" font-family="sans-serif" font-size="14" lengthAdjust="spacing" textLength="67" x="303.5" y="375.8467">identifiers</text><line style="stroke:#181818;stroke-width:0.5;" x1="275.5" x2="372.5" y1="387" y2="387"/><text fill="#000000" font-family="sans-serif" font-size="14" lengthAdjust="spacing" textLength="59" x="280.5" y="403.9951">identifier</text><line style="stroke:#181818;stroke-width:0.5;" x1="275.5" x2="372.5" y1="411.2969" y2="411.2969"/></g><!--class postal-items--><g id="elem_postal-items"><rect codeLine="9" fill="#F1F1F1" height="64.2969" id="postal-items" rx="2.5" ry="2.5" style="stroke:#181818;stroke-width:0.5;" width="117" x="534.5" y="189.5"/><ellipse cx="549.5" cy="205.5" fill="#ADD1B2" rx="11" ry="11" style="stroke:#181818;stroke-width:1.0;"/><path d="M552.4688,211.1406 Q551.8906,211.4375 551.25,211.5781 Q550.6094,211.7344 549.9063,211.7344 Q547.4063,211.7344 546.0781,210.0938 Q544.7656,208.4375 544.7656,205.3125 Q544.7656,202.1875 546.0781,200.5313 Q547.4063,198.875 549.9063,198.875 Q550.6094,198.875 551.25,199.0313 Q551.9063,199.1875 552.4688,199.4844 L552.4688,202.2031 Q551.8438,201.625 551.25,201.3594 Q550.6563,201.0781 550.0313,201.0781 Q548.6875,201.0781 548,202.1563 Q547.3125,203.2188 547.3125,205.3125 Q547.3125,207.4063 548,208.4844 Q548.6875,209.5469 550.0313,209.5469 Q550.6563,209.5469 551.25,209.2813 Q551.8438,209 552.4688,208.4219 L552.4688,211.1406 Z " fill="#000000"/><text fill="#000000" font-family="sans-serif" font-size="14" lengthAdjust="spacing" textLength="85" x="563.5" y="210.3467">postal-items</text><line style="stroke:#181818;stroke-width:0.5;" x1="535.5" x2="650.5" y1="221.5" y2="221.5"/><text fill="#000000" font-family="sans-serif" font-size="14" lengthAdjust="spacing" textLength="34" x="540.5" y="238.4951">body</text><line style="stroke:#181818;stroke-width:0.5;" x1="535.5" x2="650.5" y1="245.7969" y2="245.7969"/></g><!--class decisions--><g id="elem_decisions"><rect codeLine="11" fill="#F1F1F1" height="80.5938" id="decisions" rx="2.5" ry="2.5" style="stroke:#181818;stroke-width:0.5;" width="130" x="79" y="7"/><ellipse cx="108.4" cy="23" fill="#ADD1B2" rx="11" ry="11" style="stroke:#181818;stroke-width:1.0;"/><path d="M111.3688,28.6406 Q110.7906,28.9375 110.15,29.0781 Q109.5094,29.2344 108.8063,29.2344 Q106.3063,29.2344 104.9781,27.5938 Q103.6656,25.9375 103.6656,22.8125 Q103.6656,19.6875 104.9781,18.0313 Q106.3063,16.375 108.8063,16.375 Q109.5094,16.375 110.15,16.5313 Q110.8063,16.6875 111.3688,16.9844 L111.3688,19.7031 Q110.7438,19.125 110.15,18.8594 Q109.5563,18.5781 108.9313,18.5781 Q107.5875,18.5781 106.9,19.6563 Q106.2125,20.7188 106.2125,22.8125 Q106.2125,24.9063 106.9,25.9844 Q107.5875,27.0469 108.9313,27.0469 Q109.5563,27.0469 110.15,26.7813 Q110.7438,26.5 111.3688,25.9219 L111.3688,28.6406 Z " fill="#000000"/><text fill="#000000" font-family="sans-serif" font-size="14" lengthAdjust="spacing" textLength="66" x="125.6" y="27.8467">decisions</text><line style="stroke:#181818;stroke-width:0.5;" x1="80" x2="208" y1="39" y2="39"/><text fill="#000000" font-family="sans-serif" font-size="14" lengthAdjust="spacing" textLength="111" x="85" y="55.9951">publication-date</text><text fill="#000000" font-family="sans-serif" font-size="14" lengthAdjust="spacing" textLength="118" x="85" y="72.292">legal-implications</text><line style="stroke:#181818;stroke-width:0.5;" x1="80" x2="208" y1="79.5938" y2="79.5938"/></g><!--class designation-objects--><g id="elem_designation-objects"><rect codeLine="20" fill="#F1F1F1" height="113.1875" id="designation-objects" rx="2.5" ry="2.5" style="stroke:#181818;stroke-width:0.5;" width="169" x="239.5" y="165"/><ellipse cx="254.5" cy="181" fill="#ADD1B2" rx="11" ry="11" style="stroke:#181818;stroke-width:1.0;"/><path d="M257.4688,186.6406 Q256.8906,186.9375 256.25,187.0781 Q255.6094,187.2344 254.9063,187.2344 Q252.4063,187.2344 251.0781,185.5938 Q249.7656,183.9375 249.7656,180.8125 Q249.7656,177.6875 251.0781,176.0313 Q252.4063,174.375 254.9063,174.375 Q255.6094,174.375 256.25,174.5313 Q256.9063,174.6875 257.4688,174.9844 L257.4688,177.7031 Q256.8438,177.125 256.25,176.8594 Q255.6563,176.5781 255.0313,176.5781 Q253.6875,176.5781 253,177.6563 Q252.3125,178.7188 252.3125,180.8125 Q252.3125,182.9063 253,183.9844 Q253.6875,185.0469 255.0313,185.0469 Q255.6563,185.0469 256.25,184.7813 Q256.8438,184.5 257.4688,183.9219 L257.4688,186.6406 Z " fill="#000000"/><text fill="#000000" font-family="sans-serif" font-size="14" lengthAdjust="spacing" textLength="137" x="268.5" y="185.8467">designation-objects</text><line style="stroke:#181818;stroke-width:0.5;" x1="240.5" x2="407.5" y1="197" y2="197"/><text fill="#000000" font-family="sans-serif" font-size="14" lengthAdjust="spacing" textLength="80" x="245.5" y="213.9951">full-address</text><text fill="#000000" font-family="sans-serif" font-size="14" lengthAdjust="spacing" textLength="117" x="245.5" y="230.292">admin-unit-name</text><text fill="#000000" font-family="sans-serif" font-size="14" lengthAdjust="spacing" textLength="39" x="245.5" y="246.5889">name</text><text fill="#000000" font-family="sans-serif" font-size="14" lengthAdjust="spacing" textLength="66" x="245.5" y="262.8857">keywords</text><line style="stroke:#181818;stroke-width:0.5;" x1="240.5" x2="407.5" y1="270.1875" y2="270.1875"/></g><!--class cases--><g id="elem_cases"><rect codeLine="16" fill="#F1F1F1" height="64.2969" id="cases" rx="2.5" ry="2.5" style="stroke:#181818;stroke-width:0.5;" width="73" x="478.5" y="15.5"/><ellipse cx="493.5" cy="31.5" fill="#ADD1B2" rx="11" ry="11" style="stroke:#181818;stroke-width:1.0;"/><path d="M496.4688,37.1406 Q495.8906,37.4375 495.25,37.5781 Q494.6094,37.7344 493.9063,37.7344 Q491.4063,37.7344 490.0781,36.0938 Q488.7656,34.4375 488.7656,31.3125 Q488.7656,28.1875 490.0781,26.5313 Q491.4063,24.875 493.9063,24.875 Q494.6094,24.875 495.25,25.0313 Q495.9063,25.1875 496.4688,25.4844 L496.4688,28.2031 Q495.8438,27.625 495.25,27.3594 Q494.6563,27.0781 494.0313,27.0781 Q492.6875,27.0781 492,28.1563 Q491.3125,29.2188 491.3125,31.3125 Q491.3125,33.4063 492,34.4844 Q492.6875,35.5469 494.0313,35.5469 Q494.6563,35.5469 495.25,35.2813 Q495.8438,35 496.4688,34.4219 L496.4688,37.1406 Z " fill="#000000"/><text fill="#000000" font-family="sans-serif" font-size="14" lengthAdjust="spacing" textLength="41" x="507.5" y="36.3467">cases</text><line style="stroke:#181818;stroke-width:0.5;" x1="479.5" x2="550.5" y1="47.5" y2="47.5"/><text fill="#000000" font-family="sans-serif" font-size="14" lengthAdjust="spacing" textLength="53" x="484.5" y="64.4951">created</text><line style="stroke:#181818;stroke-width:0.5;" x1="479.5" x2="550.5" y1="71.7969" y2="71.7969"/></g><!--link decisions to designation-objects--><g id="link_decisions_designation-objects"><path codeLine="14" d="M133.41,88.08 C131.46,103.78 132.29,121.31 141,135 C162.84,169.32 196.7865,188.1672 233.5865,200.6172 " fill="none" id="decisions-to-designation-objects" style="stroke:#181818;stroke-width:1.0;"/><polygon fill="#181818" points="239.27,202.54,232.0266,195.8667,234.5337,200.9376,229.4628,203.4448,239.27,202.54" style="stroke:#181818;stroke-width:1.0;"/><polygon fill="#000000" points="149.3245,130.3011,145.5056,121.5909,141.1153,125.4991,149.3245,130.3011" style="stroke:#000000;stroke-width:1.0;"/><text fill="#000000" font-family="sans-serif" font-size="13" lengthAdjust="spacing" textLength="125" x="155" y="131.0669">designation-objects</text><text fill="#000000" font-family="sans-serif" font-size="13" lengthAdjust="spacing" textLength="7" x="224.412" y="197.2479">*</text></g><!--link designation-objects to decisions--><g id="link_designation-objects_decisions"><path codeLine="26" d="M311.29,164.95 C305.41,148.39 296.98,131.17 285,118 C264.71,95.69 241.2018,81.9997 214.7418,71.0197 " fill="none" id="designation-objects-to-decisions" style="stroke:#181818;stroke-width:1.0;"/><polygon fill="#181818" points="209.2,68.72,215.9796,75.864,213.8182,70.6364,219.0458,68.475,209.2,68.72" style="stroke:#181818;stroke-width:1.0;"/><polygon fill="#000000" points="299.4162,123.0798,303.85,131.4936,307.9487,127.2806,299.4162,123.0798" style="stroke:#000000;stroke-width:1.0;"/><text fill="#000000" font-family="sans-serif" font-size="13" lengthAdjust="spacing" textLength="59" x="312" y="131.0669">decisions</text><text fill="#000000" font-family="sans-serif" font-size="13" lengthAdjust="spacing" textLength="7" x="217.1434" y="67.4044">*</text></g><!--link decisions to remote-files--><g id="link_decisions_remote-files"><path codeLine="15" d="M82.97,88.35 C74.06,97 66.17,106.93 61,118 C54.3,132.36 52.369,143.1253 53.029,158.8853 " fill="none" id="decisions-to-remote-files" style="stroke:#181818;stroke-width:1.0;"/><polygon fill="#181818" points="53.28,164.88,56.8999,155.7205,53.0708,159.8844,48.9069,156.0552,53.28,164.88" style="stroke:#181818;stroke-width:1.0;"/><polygon fill="#000000" points="64.0463,131.1689,70.2859,123.9912,64.8753,121.6945,64.0463,131.1689" style="stroke:#000000;stroke-width:1.0;"/><text fill="#000000" font-family="sans-serif" font-size="13" lengthAdjust="spacing" textLength="25" x="75" y="131.0669">files</text><text fill="#000000" font-family="sans-serif" font-size="13" lengthAdjust="spacing" textLength="7" x="44.5469" y="154.1289">*</text></g><!--link cases to postal-items--><g id="link_cases_postal-items"><path codeLine="18" d="M533.87,79.81 C540.62,91.59 548.02,105.22 554,118 C564.89,141.28 573.1405,162.853 580.4005,183.393 " fill="none" id="cases-to-postal-items" style="stroke:#181818;stroke-width:1.0;"/><polygon fill="#181818" points="582.4,189.05,583.1721,179.2315,580.7337,184.3358,575.6294,181.8975,582.4,189.05" style="stroke:#181818;stroke-width:1.0;"/><polygon fill="#000000" points="568.0488,131.1274,567.0233,121.6722,561.6616,124.0808,568.0488,131.1274" style="stroke:#000000;stroke-width:1.0;"/><text fill="#000000" font-family="sans-serif" font-size="13" lengthAdjust="spacing" textLength="66" x="575" y="131.0669">started-by</text><text fill="#000000" font-family="sans-serif" font-size="13" lengthAdjust="spacing" textLength="8" x="571.6169" y="178.4858">1</text></g><!--link cases to designation-objects--><g id="link_cases_designation-objects"><path codeLine="19" d="M478.13,78.04 C463.28,90.18 446.12,104.53 431,118 C414.29,132.88 400.9118,145.3384 384.8018,160.7784 " fill="none" id="cases-to-designation-objects" style="stroke:#181818;stroke-width:1.0;"/><polygon fill="#181818" points="380.47,164.93,389.7354,161.5904,384.0798,161.4703,384.1999,155.8147,380.47,164.93" style="stroke:#181818;stroke-width:1.0;"/><polygon fill="#000000" points="432.2586,129.8833,440.9765,126.0821,437.0773,121.6838,432.2586,129.8833" style="stroke:#000000;stroke-width:1.0;"/><text fill="#000000" font-family="sans-serif" font-size="13" lengthAdjust="spacing" textLength="100" x="445" y="131.0669">primary-subject</text><text fill="#000000" font-family="sans-serif" font-size="13" lengthAdjust="spacing" textLength="8" x="379.1927" y="153.7844">1</text></g><!--link designation-objects to identifiers--><g id="link_designation-objects_identifiers"><path codeLine="25" d="M324,278.31 C324,303.84 324,327.14 324,348.73 " fill="none" id="designation-objects-to-identifiers" style="stroke:#181818;stroke-width:1.0;"/><polygon fill="#181818" points="324,354.73,328,345.73,324,349.73,320,345.73,324,354.73" style="stroke:#181818;stroke-width:1.0;"/><polygon fill="#000000" points="329,321.5664,331.9389,312.5213,326.0611,312.5213,329,321.5664" style="stroke:#000000;stroke-width:1.0;"/><text fill="#000000" font-family="sans-serif" font-size="13" lengthAdjust="spacing" textLength="55" x="338" y="321.0669">identifier</text><text fill="#000000" font-family="sans-serif" font-size="13" lengthAdjust="spacing" textLength="8" x="315.2125" y="343.951">1</text></g><!--SRC=[VP9BRiGW38RtEGNAiXABRhkOI_G43dX6Rda94rNfwGjaaabce2luxS-_pOCn2GSMEO32JmmG8Vaed7SuA0FCOeneVK9v9OCy3cSfFaJP58T6naSBwJNEzDkWvsYsZgJH9ReInjBmg3Bta1iUF2SmaXBQmfzaBfYyNZPKeo8cxmhts6Sep9CX1IbhgI7XKzhWhLZQi45y0gIyYF5jBFvCDxVQ-EaBLQhbZR2uYBP5wtuhVJ-20gxliAuPK17pm7gFLAVtKRnSH5OnWt9QQlDdl3DxY6GXBfBd6ZjCqYeOUZRNsHW9MaTaxaAWBJavEqfo_L8Txj_aDou_FkfUb_sytNzrVvfUxVhEXy-nYrpu1m00]--></g></svg>