<?xml version="1.0" encoding="us-ascii" standalone="no"?><svg xmlns="http://www.w3.org/2000/svg" xmlns:xlink="http://www.w3.org/1999/xlink" contentStyleType="text/css" height="616px" preserveAspectRatio="none" style="width:855px;height:616px;background:#FFFFFF;" version="1.1" viewBox="0 0 855 616" width="855px" zoomAndPan="magnify"><defs/><g><!--class remote-files--><g id="elem_remote-files"><rect codeLine="2" fill="#F1F1F1" height="113.1875" id="remote-files" rx="2.5" ry="2.5" style="stroke:#181818;stroke-width:0.5;" width="114" x="578.5" y="355"/><ellipse cx="593.5" cy="371" fill="#ADD1B2" rx="11" ry="11" style="stroke:#181818;stroke-width:1.0;"/><path d="M596.4688,376.6406 Q595.8906,376.9375 595.25,377.0781 Q594.6094,377.2344 593.9063,377.2344 Q591.4063,377.2344 590.0781,375.5938 Q588.7656,373.9375 588.7656,370.8125 Q588.7656,367.6875 590.0781,366.0313 Q591.4063,364.375 593.9063,364.375 Q594.6094,364.375 595.25,364.5313 Q595.9063,364.6875 596.4688,364.9844 L596.4688,367.7031 Q595.8438,367.125 595.25,366.8594 Q594.6563,366.5781 594.0313,366.5781 Q592.6875,366.5781 592,367.6563 Q591.3125,368.7188 591.3125,370.8125 Q591.3125,372.9063 592,373.9844 Q592.6875,375.0469 594.0313,375.0469 Q594.6563,375.0469 595.25,374.7813 Q595.8438,374.5 596.4688,373.9219 L596.4688,376.6406 Z " fill="#000000"/><text fill="#000000" font-family="sans-serif" font-size="14" lengthAdjust="spacing" textLength="82" x="607.5" y="375.8467">remote-files</text><line style="stroke:#181818;stroke-width:0.5;" x1="579.5" x2="691.5" y1="387" y2="387"/><text fill="#000000" font-family="sans-serif" font-size="14" lengthAdjust="spacing" textLength="58" x="584.5" y="403.9951">filename</text><text fill="#000000" font-family="sans-serif" font-size="14" lengthAdjust="spacing" textLength="44" x="584.5" y="420.292">format</text><text fill="#000000" font-family="sans-serif" font-size="14" lengthAdjust="spacing" textLength="28" x="584.5" y="436.5889">size</text><text fill="#000000" font-family="sans-serif" font-size="14" lengthAdjust="spacing" textLength="17" x="584.5" y="452.8857">url</text><line style="stroke:#181818;stroke-width:0.5;" x1="579.5" x2="691.5" y1="460.1875" y2="460.1875"/></g><!--class identifiers--><g id="elem_identifiers"><rect codeLine="7" fill="#F1F1F1" height="64.2969" id="identifiers" rx="2.5" ry="2.5" style="stroke:#181818;stroke-width:0.5;" width="99" x="182" y="545"/><ellipse cx="197" cy="561" fill="#ADD1B2" rx="11" ry="11" style="stroke:#181818;stroke-width:1.0;"/><path d="M199.9688,566.6406 Q199.3906,566.9375 198.75,567.0781 Q198.1094,567.2344 197.4063,567.2344 Q194.9063,567.2344 193.5781,565.5938 Q192.2656,563.9375 192.2656,560.8125 Q192.2656,557.6875 193.5781,556.0313 Q194.9063,554.375 197.4063,554.375 Q198.1094,554.375 198.75,554.5313 Q199.4063,554.6875 199.9688,554.9844 L199.9688,557.7031 Q199.3438,557.125 198.75,556.8594 Q198.1563,556.5781 197.5313,556.5781 Q196.1875,556.5781 195.5,557.6563 Q194.8125,558.7188 194.8125,560.8125 Q194.8125,562.9063 195.5,563.9844 Q196.1875,565.0469 197.5313,565.0469 Q198.1563,565.0469 198.75,564.7813 Q199.3438,564.5 199.9688,563.9219 L199.9688,566.6406 Z " fill="#000000"/><text fill="#000000" font-family="sans-serif" font-size="14" lengthAdjust="spacing" textLength="67" x="211" y="565.8467">identifiers</text><line style="stroke:#181818;stroke-width:0.5;" x1="183" x2="280" y1="577" y2="577"/><text fill="#000000" font-family="sans-serif" font-size="14" lengthAdjust="spacing" textLength="59" x="188" y="593.9951">identifier</text><line style="stroke:#181818;stroke-width:0.5;" x1="183" x2="280" y1="601.2969" y2="601.2969"/></g><!--class annotations--><g id="elem_annotations"><rect codeLine="9" fill="#F1F1F1" height="96.8906" id="annotations" rx="2.5" ry="2.5" style="stroke:#181818;stroke-width:0.5;" width="114" x="598.5" y="7"/><ellipse cx="613.5" cy="23" fill="#ADD1B2" rx="11" ry="11" style="stroke:#181818;stroke-width:1.0;"/><path d="M616.4688,28.6406 Q615.8906,28.9375 615.25,29.0781 Q614.6094,29.2344 613.9063,29.2344 Q611.4063,29.2344 610.0781,27.5938 Q608.7656,25.9375 608.7656,22.8125 Q608.7656,19.6875 610.0781,18.0313 Q611.4063,16.375 613.9063,16.375 Q614.6094,16.375 615.25,16.5313 Q615.9063,16.6875 616.4688,16.9844 L616.4688,19.7031 Q615.8438,19.125 615.25,18.8594 Q614.6563,18.5781 614.0313,18.5781 Q612.6875,18.5781 612,19.6563 Q611.3125,20.7188 611.3125,22.8125 Q611.3125,24.9063 612,25.9844 Q612.6875,27.0469 614.0313,27.0469 Q614.6563,27.0469 615.25,26.7813 Q615.8438,26.5 616.4688,25.9219 L616.4688,28.6406 Z " fill="#000000"/><text fill="#000000" font-family="sans-serif" font-size="14" lengthAdjust="spacing" textLength="82" x="627.5" y="27.8467">annotations</text><line style="stroke:#181818;stroke-width:0.5;" x1="599.5" x2="711.5" y1="39" y2="39"/><text fill="#000000" font-family="sans-serif" font-size="14" lengthAdjust="spacing" textLength="53" x="604.5" y="55.9951">created</text><text fill="#000000" font-family="sans-serif" font-size="14" lengthAdjust="spacing" textLength="49" x="604.5" y="72.292">creator</text><text fill="#000000" font-family="sans-serif" font-size="14" lengthAdjust="spacing" textLength="89" x="604.5" y="88.5889">motivated-by</text><line style="stroke:#181818;stroke-width:0.5;" x1="599.5" x2="711.5" y1="95.8906" y2="95.8906"/></g><!--class decisions--><g id="elem_decisions"><rect codeLine="24" fill="#F1F1F1" height="96.8906" id="decisions" rx="2.5" ry="2.5" style="stroke:#181818;stroke-width:0.5;" width="130" x="466.5" y="181"/><ellipse cx="495.9" cy="197" fill="#ADD1B2" rx="11" ry="11" style="stroke:#181818;stroke-width:1.0;"/><path d="M498.8688,202.6406 Q498.2906,202.9375 497.65,203.0781 Q497.0094,203.2344 496.3063,203.2344 Q493.8063,203.2344 492.4781,201.5938 Q491.1656,199.9375 491.1656,196.8125 Q491.1656,193.6875 492.4781,192.0313 Q493.8063,190.375 496.3063,190.375 Q497.0094,190.375 497.65,190.5313 Q498.3063,190.6875 498.8688,190.9844 L498.8688,193.7031 Q498.2438,193.125 497.65,192.8594 Q497.0563,192.5781 496.4313,192.5781 Q495.0875,192.5781 494.4,193.6563 Q493.7125,194.7188 493.7125,196.8125 Q493.7125,198.9063 494.4,199.9844 Q495.0875,201.0469 496.4313,201.0469 Q497.0563,201.0469 497.65,200.7813 Q498.2438,200.5 498.8688,199.9219 L498.8688,202.6406 Z " fill="#000000"/><text fill="#000000" font-family="sans-serif" font-size="14" lengthAdjust="spacing" textLength="66" x="513.1" y="201.8467">decisions</text><line style="stroke:#181818;stroke-width:0.5;" x1="467.5" x2="595.5" y1="213" y2="213"/><text fill="#000000" font-family="sans-serif" font-size="14" lengthAdjust="spacing" textLength="111" x="472.5" y="229.9951">publication-date</text><text fill="#000000" font-family="sans-serif" font-size="14" lengthAdjust="spacing" textLength="118" x="472.5" y="246.292">legal-implications</text><text fill="#000000" font-family="sans-serif" font-size="14" lengthAdjust="spacing" textLength="59" x="472.5" y="262.5889">identifier</text><line style="stroke:#181818;stroke-width:0.5;" x1="467.5" x2="595.5" y1="269.8906" y2="269.8906"/></g><!--class authorisable-operations--><g id="elem_authorisable-operations"><rect codeLine="21" fill="#F1F1F1" height="64.2969" id="authorisable-operations" rx="2.5" ry="2.5" style="stroke:#181818;stroke-width:0.5;" width="196" x="652.5" y="197.5"/><ellipse cx="667.5" cy="213.5" fill="#ADD1B2" rx="11" ry="11" style="stroke:#181818;stroke-width:1.0;"/><path d="M670.4688,219.1406 Q669.8906,219.4375 669.25,219.5781 Q668.6094,219.7344 667.9063,219.7344 Q665.4063,219.7344 664.0781,218.0938 Q662.7656,216.4375 662.7656,213.3125 Q662.7656,210.1875 664.0781,208.5313 Q665.4063,206.875 667.9063,206.875 Q668.6094,206.875 669.25,207.0313 Q669.9063,207.1875 670.4688,207.4844 L670.4688,210.2031 Q669.8438,209.625 669.25,209.3594 Q668.6563,209.0781 668.0313,209.0781 Q666.6875,209.0781 666,210.1563 Q665.3125,211.2188 665.3125,213.3125 Q665.3125,215.4063 666,216.4844 Q666.6875,217.5469 668.0313,217.5469 Q668.6563,217.5469 669.25,217.2813 Q669.8438,217 670.4688,216.4219 L670.4688,219.1406 Z " fill="#000000"/><text fill="#000000" font-family="sans-serif" font-size="14" lengthAdjust="spacing" textLength="164" x="681.5" y="218.3467">authorisable-operations</text><line style="stroke:#181818;stroke-width:0.5;" x1="653.5" x2="847.5" y1="229.5" y2="229.5"/><text fill="#000000" font-family="sans-serif" font-size="14" lengthAdjust="spacing" textLength="77" x="658.5" y="246.4951">description</text><line style="stroke:#181818;stroke-width:0.5;" x1="653.5" x2="847.5" y1="253.7969" y2="253.7969"/></g><!--class reviews--><g id="elem_reviews"><rect codeLine="15" fill="#F1F1F1" height="96.8906" id="reviews" rx="2.5" ry="2.5" style="stroke:#181818;stroke-width:0.5;" width="84" x="727.5" y="363"/><ellipse cx="742.5" cy="379" fill="#ADD1B2" rx="11" ry="11" style="stroke:#181818;stroke-width:1.0;"/><path d="M745.4688,384.6406 Q744.8906,384.9375 744.25,385.0781 Q743.6094,385.2344 742.9063,385.2344 Q740.4063,385.2344 739.0781,383.5938 Q737.7656,381.9375 737.7656,378.8125 Q737.7656,375.6875 739.0781,374.0313 Q740.4063,372.375 742.9063,372.375 Q743.6094,372.375 744.25,372.5313 Q744.9063,372.6875 745.4688,372.9844 L745.4688,375.7031 Q744.8438,375.125 744.25,374.8594 Q743.6563,374.5781 743.0313,374.5781 Q741.6875,374.5781 741,375.6563 Q740.3125,376.7188 740.3125,378.8125 Q740.3125,380.9063 741,381.9844 Q741.6875,383.0469 743.0313,383.0469 Q743.6563,383.0469 744.25,382.7813 Q744.8438,382.5 745.4688,381.9219 L745.4688,384.6406 Z " fill="#000000"/><text fill="#000000" font-family="sans-serif" font-size="14" lengthAdjust="spacing" textLength="52" x="756.5" y="383.8467">reviews</text><line style="stroke:#181818;stroke-width:0.5;" x1="728.5" x2="810.5" y1="395" y2="395"/><text fill="#000000" font-family="sans-serif" font-size="14" lengthAdjust="spacing" textLength="53" x="733.5" y="411.9951">created</text><text fill="#000000" font-family="sans-serif" font-size="14" lengthAdjust="spacing" textLength="49" x="733.5" y="428.292">creator</text><text fill="#000000" font-family="sans-serif" font-size="14" lengthAdjust="spacing" textLength="65" x="733.5" y="444.5889">approved</text><line style="stroke:#181818;stroke-width:0.5;" x1="728.5" x2="810.5" y1="451.8906" y2="451.8906"/></g><!--class postal-items--><g id="elem_postal-items"><rect codeLine="19" fill="#F1F1F1" height="64.2969" id="postal-items" rx="2.5" ry="2.5" style="stroke:#181818;stroke-width:0.5;" width="117" x="7" y="379.5"/><ellipse cx="22" cy="395.5" fill="#ADD1B2" rx="11" ry="11" style="stroke:#181818;stroke-width:1.0;"/><path d="M24.9688,401.1406 Q24.3906,401.4375 23.75,401.5781 Q23.1094,401.7344 22.4063,401.7344 Q19.9063,401.7344 18.5781,400.0938 Q17.2656,398.4375 17.2656,395.3125 Q17.2656,392.1875 18.5781,390.5313 Q19.9063,388.875 22.4063,388.875 Q23.1094,388.875 23.75,389.0313 Q24.4063,389.1875 24.9688,389.4844 L24.9688,392.2031 Q24.3438,391.625 23.75,391.3594 Q23.1563,391.0781 22.5313,391.0781 Q21.1875,391.0781 20.5,392.1563 Q19.8125,393.2188 19.8125,395.3125 Q19.8125,397.4063 20.5,398.4844 Q21.1875,399.5469 22.5313,399.5469 Q23.1563,399.5469 23.75,399.2813 Q24.3438,399 24.9688,398.4219 L24.9688,401.1406 Z " fill="#000000"/><text fill="#000000" font-family="sans-serif" font-size="14" lengthAdjust="spacing" textLength="85" x="36" y="400.3467">postal-items</text><line style="stroke:#181818;stroke-width:0.5;" x1="8" x2="123" y1="411.5" y2="411.5"/><text fill="#000000" font-family="sans-serif" font-size="14" lengthAdjust="spacing" textLength="34" x="13" y="428.4951">body</text><line style="stroke:#181818;stroke-width:0.5;" x1="8" x2="123" y1="435.7969" y2="435.7969"/></g><!--class designation-objects--><g id="elem_designation-objects"><rect codeLine="37" fill="#F1F1F1" height="113.1875" id="designation-objects" rx="2.5" ry="2.5" style="stroke:#181818;stroke-width:0.5;" width="169" x="257" y="355"/><ellipse cx="272" cy="371" fill="#ADD1B2" rx="11" ry="11" style="stroke:#181818;stroke-width:1.0;"/><path d="M274.9688,376.6406 Q274.3906,376.9375 273.75,377.0781 Q273.1094,377.2344 272.4063,377.2344 Q269.9063,377.2344 268.5781,375.5938 Q267.2656,373.9375 267.2656,370.8125 Q267.2656,367.6875 268.5781,366.0313 Q269.9063,364.375 272.4063,364.375 Q273.1094,364.375 273.75,364.5313 Q274.4063,364.6875 274.9688,364.9844 L274.9688,367.7031 Q274.3438,367.125 273.75,366.8594 Q273.1563,366.5781 272.5313,366.5781 Q271.1875,366.5781 270.5,367.6563 Q269.8125,368.7188 269.8125,370.8125 Q269.8125,372.9063 270.5,373.9844 Q271.1875,375.0469 272.5313,375.0469 Q273.1563,375.0469 273.75,374.7813 Q274.3438,374.5 274.9688,373.9219 L274.9688,376.6406 Z " fill="#000000"/><text fill="#000000" font-family="sans-serif" font-size="14" lengthAdjust="spacing" textLength="137" x="286" y="375.8467">designation-objects</text><line style="stroke:#181818;stroke-width:0.5;" x1="258" x2="425" y1="387" y2="387"/><text fill="#000000" font-family="sans-serif" font-size="14" lengthAdjust="spacing" textLength="80" x="263" y="403.9951">full-address</text><text fill="#000000" font-family="sans-serif" font-size="14" lengthAdjust="spacing" textLength="117" x="263" y="420.292">admin-unit-name</text><text fill="#000000" font-family="sans-serif" font-size="14" lengthAdjust="spacing" textLength="39" x="263" y="436.5889">name</text><text fill="#000000" font-family="sans-serif" font-size="14" lengthAdjust="spacing" textLength="66" x="263" y="452.8857">keywords</text><line style="stroke:#181818;stroke-width:0.5;" x1="258" x2="425" y1="460.1875" y2="460.1875"/></g><!--class plans--><g id="elem_plans"><rect codeLine="30" fill="#F1F1F1" height="64.2969" id="plans" rx="2.5" ry="2.5" style="stroke:#181818;stroke-width:0.5;" width="71" x="355" y="545"/><ellipse cx="370.9" cy="561" fill="#ADD1B2" rx="11" ry="11" style="stroke:#181818;stroke-width:1.0;"/><path d="M373.8688,566.6406 Q373.2906,566.9375 372.65,567.0781 Q372.0094,567.2344 371.3063,567.2344 Q368.8063,567.2344 367.4781,565.5938 Q366.1656,563.9375 366.1656,560.8125 Q366.1656,557.6875 367.4781,556.0313 Q368.8063,554.375 371.3063,554.375 Q372.0094,554.375 372.65,554.5313 Q373.3063,554.6875 373.8688,554.9844 L373.8688,557.7031 Q373.2438,557.125 372.65,556.8594 Q372.0563,556.5781 371.4313,556.5781 Q370.0875,556.5781 369.4,557.6563 Q368.7125,558.7188 368.7125,560.8125 Q368.7125,562.9063 369.4,563.9844 Q370.0875,565.0469 371.4313,565.0469 Q372.0563,565.0469 372.65,564.7813 Q373.2438,564.5 373.8688,563.9219 L373.8688,566.6406 Z " fill="#000000"/><text fill="#000000" font-family="sans-serif" font-size="14" lengthAdjust="spacing" textLength="37" x="385.1" y="565.8467">plans</text><line style="stroke:#181818;stroke-width:0.5;" x1="356" x2="425" y1="577" y2="577"/><text fill="#000000" font-family="sans-serif" font-size="14" lengthAdjust="spacing" textLength="59" x="361" y="593.9951">identifier</text><line style="stroke:#181818;stroke-width:0.5;" x1="356" x2="425" y1="601.2969" y2="601.2969"/></g><!--class cases--><g id="elem_cases"><rect codeLine="33" fill="#F1F1F1" height="64.2969" id="cases" rx="2.5" ry="2.5" style="stroke:#181818;stroke-width:0.5;" width="73" x="90" y="197.5"/><ellipse cx="105" cy="213.5" fill="#ADD1B2" rx="11" ry="11" style="stroke:#181818;stroke-width:1.0;"/><path d="M107.9688,219.1406 Q107.3906,219.4375 106.75,219.5781 Q106.1094,219.7344 105.4063,219.7344 Q102.9063,219.7344 101.5781,218.0938 Q100.2656,216.4375 100.2656,213.3125 Q100.2656,210.1875 101.5781,208.5313 Q102.9063,206.875 105.4063,206.875 Q106.1094,206.875 106.75,207.0313 Q107.4063,207.1875 107.9688,207.4844 L107.9688,210.2031 Q107.3438,209.625 106.75,209.3594 Q106.1563,209.0781 105.5313,209.0781 Q104.1875,209.0781 103.5,210.1563 Q102.8125,211.2188 102.8125,213.3125 Q102.8125,215.4063 103.5,216.4844 Q104.1875,217.5469 105.5313,217.5469 Q106.1563,217.5469 106.75,217.2813 Q107.3438,217 107.9688,216.4219 L107.9688,219.1406 Z " fill="#000000"/><text fill="#000000" font-family="sans-serif" font-size="14" lengthAdjust="spacing" textLength="41" x="119" y="218.3467">cases</text><line style="stroke:#181818;stroke-width:0.5;" x1="91" x2="162" y1="229.5" y2="229.5"/><text fill="#000000" font-family="sans-serif" font-size="14" lengthAdjust="spacing" textLength="53" x="96" y="246.4951">created</text><line style="stroke:#181818;stroke-width:0.5;" x1="91" x2="162" y1="253.7969" y2="253.7969"/></g><!--link annotations to decisions--><g id="link_annotations_decisions"><path codeLine="13" d="M620.96,104.41 C603.76,128.27 586.5375,152.152 569.3675,175.982 " fill="none" id="annotations-to-decisions" style="stroke:#181818;stroke-width:1.0;"/><polygon fill="#181818" points="565.86,180.85,574.3666,175.8863,568.7829,176.7933,567.8759,171.2097,565.86,180.85" style="stroke:#181818;stroke-width:1.0;"/><polygon fill="#000000" points="599.5762,146.6224,607.2495,141.0036,602.4813,137.5664,599.5762,146.6224" style="stroke:#000000;stroke-width:1.0;"/><text fill="#000000" font-family="sans-serif" font-size="13" lengthAdjust="spacing" textLength="39" x="611.5" y="147.0669">target</text><text fill="#000000" font-family="sans-serif" font-size="13" lengthAdjust="spacing" textLength="8" x="562.1294" y="170.0378">1</text></g><!--link annotations to authorisable-operations--><g id="link_annotations_authorisable-operations"><path codeLine="14" d="M681.96,104.41 C698.38,134.13 716.0877,166.2087 730.4077,192.1187 " fill="none" id="annotations-to-authorisable-operations" style="stroke:#181818;stroke-width:1.0;"/><polygon fill="#181818" points="733.31,197.37,732.4574,187.5581,730.8914,192.9939,725.4556,191.4279,733.31,197.37" style="stroke:#181818;stroke-width:1.0;"/><polygon fill="#000000" points="712.9176,146.9431,711.1167,137.6046,705.9716,140.4466,712.9176,146.9431" style="stroke:#000000;stroke-width:1.0;"/><text fill="#000000" font-family="sans-serif" font-size="13" lengthAdjust="spacing" textLength="31" x="719.5" y="147.0669">body</text><text fill="#000000" font-family="sans-serif" font-size="13" lengthAdjust="spacing" textLength="8" x="720.9396" y="186.2463">1</text></g><!--link authorisable-operations to reviews--><g id="link_authorisable-operations_reviews"><path codeLine="23" d="M753.81,261.85 C756.75,289.75 760.4808,325.0031 763.8508,356.9631 " fill="none" id="authorisable-operations-to-reviews" style="stroke:#181818;stroke-width:1.0;"/><polygon fill="#181818" points="764.48,362.93,767.5142,353.5602,763.9557,357.9576,759.5583,354.3991,764.48,362.93" style="stroke:#181818;stroke-width:1.0;"/><polygon fill="#000000" points="765.0249,321.5388,766.998,312.2351,761.1526,312.8522,765.0249,321.5388" style="stroke:#000000;stroke-width:1.0;"/><text fill="#000000" font-family="sans-serif" font-size="13" lengthAdjust="spacing" textLength="40" x="773.5" y="321.0669">review</text><text fill="#000000" font-family="sans-serif" font-size="13" lengthAdjust="spacing" textLength="8" x="755.1552" y="351.7794">1</text></g><!--link decisions to designation-objects--><g id="link_decisions_designation-objects"><path codeLine="28" d="M466.44,237.93 C422.27,246.73 366.91,265.97 338.5,308 C329.33,321.57 326.7768,332.6304 327.7368,348.9104 " fill="none" id="decisions-to-designation-objects" style="stroke:#181818;stroke-width:1.0;"/><polygon fill="#181818" points="328.09,354.9,331.5533,345.6801,327.7957,349.9087,323.5671,346.1511,328.09,354.9" style="stroke:#181818;stroke-width:1.0;"/><polygon fill="#000000" points="339.5959,319.6902,348.4946,316.334,344.8224,311.7444,339.5959,319.6902" style="stroke:#000000;stroke-width:1.0;"/><text fill="#000000" font-family="sans-serif" font-size="13" lengthAdjust="spacing" textLength="125" x="352.5" y="321.0669">designation-objects</text><text fill="#000000" font-family="sans-serif" font-size="13" lengthAdjust="spacing" textLength="7" x="318.9234" y="343.7506">*</text></g><!--link designation-objects to decisions--><g id="link_designation-objects_decisions"><path codeLine="43" d="M426.14,369.46 C446.23,357.08 466.46,342.14 482.5,325 C495,311.64 502.5443,299.8798 510.3043,283.8598 " fill="none" id="designation-objects-to-decisions" style="stroke:#181818;stroke-width:1.0;"/><polygon fill="#181818" points="512.92,278.46,505.3966,284.816,510.7403,282.9599,512.5964,288.3035,512.92,278.46" style="stroke:#181818;stroke-width:1.0;"/><polygon fill="#000000" points="504.0055,313.0011,495.5684,317.3903,499.7596,321.5113,504.0055,313.0011" style="stroke:#000000;stroke-width:1.0;"/><text fill="#000000" font-family="sans-serif" font-size="13" lengthAdjust="spacing" textLength="59" x="509.5" y="321.0669">decisions</text><text fill="#000000" font-family="sans-serif" font-size="13" lengthAdjust="spacing" textLength="7" x="502.953" y="298.13">*</text></g><!--link decisions to remote-files--><g id="link_decisions_remote-files"><path codeLine="29" d="M575.74,278.26 C583.25,287.71 590.54,297.85 596.5,308 C605.03,322.53 610.2089,333.6536 616.0989,349.3236 " fill="none" id="decisions-to-remote-files" style="stroke:#181818;stroke-width:1.0;"/><polygon fill="#181818" points="618.21,354.94,618.7876,345.1081,616.4508,350.2597,611.2992,347.9228,618.21,354.94" style="stroke:#181818;stroke-width:1.0;"/><polygon fill="#000000" points="612.9692,320.9142,611.0579,311.5976,605.9468,314.5004,612.9692,320.9142" style="stroke:#000000;stroke-width:1.0;"/><text fill="#000000" font-family="sans-serif" font-size="13" lengthAdjust="spacing" textLength="25" x="619.5" y="321.0669">files</text><text fill="#000000" font-family="sans-serif" font-size="13" lengthAdjust="spacing" textLength="7" x="608.5463" y="343.7957">*</text></g><!--link plans to designation-objects--><g id="link_plans_designation-objects"><path codeLine="32" d="M394.78,544.76 C395.78,530.3 395.57,513.03 391.5,498 C388.76,487.88 387.2188,483.0584 382.2988,473.4684 " fill="none" id="plans-to-designation-objects" style="stroke:#181818;stroke-width:1.0;"/><polygon fill="#181818" points="379.56,468.13,380.1092,477.9635,381.8423,472.5787,387.2272,474.3118,379.56,468.13" style="stroke:#181818;stroke-width:1.0;"/><polygon fill="#000000" points="399.6378,501.6413,398.3027,511.0577,404.0925,510.0441,399.6378,501.6413" style="stroke:#000000;stroke-width:1.0;"/><text fill="#000000" font-family="sans-serif" font-size="13" lengthAdjust="spacing" textLength="125" x="409.5" y="511.0669">designation-objects</text><text fill="#000000" font-family="sans-serif" font-size="13" lengthAdjust="spacing" textLength="7" x="376.988" y="488.41">*</text></g><!--link designation-objects to plans--><g id="link_designation-objects_plans"><path codeLine="44" d="M329.05,468.09 C327.85,483.69 328.8,500.37 334.5,515 C338.93,526.39 342.5454,532.5173 350.8054,541.5273 " fill="none" id="designation-objects-to-plans" style="stroke:#181818;stroke-width:1.0;"/><polygon fill="#181818" points="354.86,545.95,351.7266,536.6129,351.4812,542.2644,345.8297,542.019,354.86,545.95" style="stroke:#181818;stroke-width:1.0;"/><polygon fill="#000000" points="340.9202,511.3605,341.1689,501.8532,335.5331,503.5227,340.9202,511.3605" style="stroke:#000000;stroke-width:1.0;"/><text fill="#000000" font-family="sans-serif" font-size="13" lengthAdjust="spacing" textLength="34" x="348.5" y="511.0669">plans</text><text fill="#000000" font-family="sans-serif" font-size="13" lengthAdjust="spacing" textLength="7" x="339.7874" y="535.049">*</text></g><!--link cases to postal-items--><g id="link_cases_postal-items"><path codeLine="35" d="M92.44,261.59 C80.58,274.62 68.7,290.76 62.5,308 C54.31,330.78 54.7931,352.3544 57.8631,373.1344 " fill="none" id="cases-to-postal-items" style="stroke:#181818;stroke-width:1.0;"/><polygon fill="#181818" points="58.74,379.07,61.3817,369.582,58.0092,374.1237,53.4676,370.7512,58.74,379.07" style="stroke:#181818;stroke-width:1.0;"/><polygon fill="#000000" points="66.0196,321.3422,71.5048,313.5729,65.8905,311.8325,66.0196,321.3422" style="stroke:#000000;stroke-width:1.0;"/><text fill="#000000" font-family="sans-serif" font-size="13" lengthAdjust="spacing" textLength="66" x="76.5" y="321.0669">started-by</text><text fill="#000000" font-family="sans-serif" font-size="13" lengthAdjust="spacing" textLength="8" x="48.6889" y="368.5096">1</text></g><!--link cases to designation-objects--><g id="link_cases_designation-objects"><path codeLine="36" d="M150.35,261.84 C165.98,281.25 187.52,306.02 209.5,325 C224.07,337.58 235.6399,346.3735 251.9799,357.3535 " fill="none" id="cases-to-designation-objects" style="stroke:#181818;stroke-width:1.0;"/><polygon fill="#181818" points="256.96,360.7,251.7209,352.3603,252.8099,357.9113,247.2589,359.0004,256.96,360.7" style="stroke:#181818;stroke-width:1.0;"/><polygon fill="#000000" points="218.1435,319.9906,213.5651,311.6546,209.5397,315.9378,218.1435,319.9906" style="stroke:#000000;stroke-width:1.0;"/><text fill="#000000" font-family="sans-serif" font-size="13" lengthAdjust="spacing" textLength="100" x="223.5" y="321.0669">primary-subject</text><text fill="#000000" font-family="sans-serif" font-size="13" lengthAdjust="spacing" textLength="8" x="241.0744" y="352.5721">1</text></g><!--link designation-objects to identifiers--><g id="link_designation-objects_identifiers"><path codeLine="42" d="M275.04,468.12 C266.58,477.42 258.72,487.49 252.5,498 C244.07,512.24 240.1585,524.053 237.0885,538.983 " fill="none" id="designation-objects-to-identifiers" style="stroke:#181818;stroke-width:1.0;"/><polygon fill="#181818" points="235.88,544.86,241.6107,536.8501,236.8871,539.9625,233.7747,535.2388,235.88,544.86" style="stroke:#181818;stroke-width:1.0;"/><polygon fill="#000000" points="255.1394,510.9741,262.0005,504.388,256.819,501.613,255.1394,510.9741" style="stroke:#000000;stroke-width:1.0;"/><text fill="#000000" font-family="sans-serif" font-size="13" lengthAdjust="spacing" textLength="55" x="266.5" y="511.0669">identifier</text><text fill="#000000" font-family="sans-serif" font-size="13" lengthAdjust="spacing" textLength="8" x="227.9584" y="533.7342">1</text></g><!--SRC=[dLHBakCW3Dtx52ulkuf5RtkHIym9PAEarOE1ad2wqgTlWpyXnAIcPWLwUleB14DhOKJnCE0VzC0G7BVMMMm60o9jnpYwWEfC1gLh7iNseusNwE50utY4y8mB_Hom9pPRHD9e0vq9EGRCfPbt5pSwMEi2178sqdDffW-C450VuuwVy3afkaOBrTyAfLAdjdllsaxZGB8P1E3BtCHJMsF353uTaq1lK3cFV0_MEtsBbdkdhuJVIvENMrv0YSNaCmoyPtUTYQipxoI0KHHmZ1uVn3Nqti1AXisht3NAmEIZ_8AtTo7BTBbcTT_xsJpsra-zeI7vKdhkGg4sU8abZNuZIK78TYLNfAJUqY25BdRnx_el7C9MMWcd-HwvE7eEajNc3QIwbhF8QGN_CvyrmW2I7kPovXkp8liCoXsO9LusFPLNqYlPUAOH-APaIjZ379yDcfgRysIC0gqPHQeaq2DPDLaAQlbZAhoNohzu-tQiQr7sUgiVpJhyckrR-INimZyOxdkHBhF1Bm00]--></g></svg>